<?xml version="1.0" standalone="no"?>
<!DOCTYPE svg PUBLIC "-//W3C//DTD SVG 20010904//EN"
 "http://www.w3.org/TR/2001/REC-SVG-20010904/DTD/svg10.dtd">
<svg version="1.0" xmlns="http://www.w3.org/2000/svg"
 width="512.000000pt" height="512.000000pt" viewBox="0 0 512.000000 512.000000"
 preserveAspectRatio="xMidYMid meet">
<metadata>
Created by potrace 1.16, written by Peter Selinger 2001-2019
</metadata>
<g transform="translate(0.000000,512.000000) scale(0.100000,-0.100000)"
fill="#000000" stroke="none">
<path d="M482 4769 c-65 -32 -99 -66 -135 -133 l-22 -41 -3 -2024 -2 -2024 23
-51 c34 -74 70 -111 139 -145 52 -27 72 -31 139 -31 146 0 94 -49 991 924
l793 859 5 -789 5 -789 25 -48 c51 -100 149 -157 272 -157 145 0 80 -62 1105
1049 499 541 920 1001 936 1024 15 22 32 58 38 81 16 60 7 163 -19 217 -15 31
-309 357 -894 990 -479 519 -894 970 -922 1002 -73 83 -145 117 -246 117 -124
0 -214 -54 -273 -164 l-22 -41 -5 -791 -5 -790 -764 828 c-421 456 -778 844
-793 862 -16 19 -56 48 -90 65 -52 27 -72 31 -138 31 -66 0 -86 -4 -138 -31z"/>
</g>
</svg>
