<?xml version="1.0" standalone="no"?>
<!DOCTYPE svg PUBLIC "-//W3C//DTD SVG 20010904//EN"
 "http://www.w3.org/TR/2001/REC-SVG-20010904/DTD/svg10.dtd">
<svg version="1.0" xmlns="http://www.w3.org/2000/svg"
 width="512.000000pt" height="512.000000pt" viewBox="0 0 512.000000 512.000000"
 preserveAspectRatio="xMidYMid meet">
<metadata>
Created by potrace 1.16, written by Peter Selinger 2001-2019
</metadata>
<g transform="translate(0.000000,512.000000) scale(0.100000,-0.100000)"
fill="#000000" stroke="none">
<path d="M1662 4800 c-108 -23 -223 -104 -276 -194 -60 -102 -56 29 -56 -2047
0 -1874 0 -1898 20 -1962 22 -72 75 -149 134 -196 242 -192 608 -58 666 244 8
44 10 567 8 1950 l-3 1890 -23 56 c-62 155 -195 252 -360 263 -37 3 -86 1
-110 -4z"/>
<path d="M3240 4778 c-133 -51 -220 -148 -256 -283 -11 -41 -14 -398 -14
-1942 0 -1828 1 -1893 19 -1952 37 -121 110 -204 227 -258 53 -25 70 -28 169
-28 105 0 114 2 177 33 115 57 192 148 222 267 14 52 16 272 16 1940 0 1637
-2 1888 -15 1938 -33 126 -99 208 -213 264 -71 35 -83 38 -176 40 -83 2 -111
-1 -156 -19z"/>
</g>
</svg>
