<?xml version="1.0" standalone="no"?>
<!DOCTYPE svg PUBLIC "-//W3C//DTD SVG 20010904//EN"
 "http://www.w3.org/TR/2001/REC-SVG-20010904/DTD/svg10.dtd">
<svg version="1.0" xmlns="http://www.w3.org/2000/svg"
 width="512.000000pt" height="512.000000pt" viewBox="0 0 512.000000 512.000000"
 preserveAspectRatio="xMidYMid meet">
<metadata>
Created by potrace 1.16, written by Peter Selinger 2001-2019
</metadata>
<g transform="translate(0.000000,512.000000) scale(0.100000,-0.100000)"
fill="#000000" stroke="none">
<path d="M2271 4768 c-54 -30 -157 -137 -982 -1033 -728 -789 -927 -1011 -946
-1052 -39 -85 -32 -204 17 -285 9 -15 432 -477 940 -1028 738 -799 933 -1005
970 -1023 32 -16 68 -23 127 -25 70 -4 89 -1 136 21 62 28 117 80 149 140 l23
42 5 789 5 789 778 -844 c428 -464 798 -860 824 -881 59 -47 114 -62 206 -56
116 8 195 58 250 162 l22 41 0 2035 c0 1975 -1 2036 -19 2070 -37 68 -77 109
-138 139 -122 61 -272 34 -363 -64 -22 -24 -382 -414 -800 -867 l-760 -823 -5
785 c-5 774 -5 786 -26 831 -28 60 -85 116 -148 145 -40 19 -68 24 -128 24
-67 0 -84 -4 -137 -32z"/>
</g>
</svg>
